<svg width="174" height="53" viewBox="0 0 174 53" fill="none" xmlns="http://www.w3.org/2000/svg">
<path fill-rule="evenodd" clip-rule="evenodd" d="M109.258 21.7394L109.247 26.1636C109.247 26.2255 109.245 26.2867 109.241 26.3473C109.152 27.5807 108.172 28.5616 106.984 28.5616C105.738 28.5616 104.721 27.4613 104.721 26.1684C104.721 25.4412 105.043 24.7852 105.546 24.3445C105.705 24.203 105.87 24.0884 106.03 23.9845L109.258 21.7394Z" fill="#3B4B73"/>
<path fill-rule="evenodd" clip-rule="evenodd" d="M42.3264 43.9778C42.3264 45.1486 42.1737 45.991 41.8685 46.5017C41.5669 47.0157 41.1023 47.3342 40.4856 47.4635C39.8655 47.5928 38.8803 47.6592 37.5272 47.6592H32.7944V31.9184H40.8108V34.648H36.8935V37.3112H37.5272C38.7909 37.3112 39.746 37.3843 40.3929 37.5335C41.0395 37.683 41.5237 38.0111 41.8454 38.5221C42.1671 39.0293 42.3264 39.8287 42.3264 40.9166V43.9778ZM38.2271 43.5002V41.2284C38.2271 40.5649 38.1606 40.1637 38.028 40.0209C37.8953 39.8784 37.5172 39.7986 36.8935 39.7788V44.9495C37.4144 44.9495 37.7661 44.8831 37.9483 44.7505C38.1342 44.618 38.2271 44.1998 38.2271 43.5002ZM51.4804 31.9184L50.3662 42.3427C50.1905 43.9909 50.0013 45.1453 49.8024 45.8085C49.5999 46.4719 49.2117 46.946 48.6348 47.2313C48.0578 47.5166 47.1092 47.6592 45.7893 47.6592H43.398V45.6293H43.6401C44.1773 45.6293 44.509 45.5864 44.6348 45.4967C44.7642 45.4105 44.8274 45.2747 44.8274 45.0954C44.8274 45.0821 44.7476 44.6378 44.592 43.7621L42.446 31.9184H46.0015L47.2951 41.7124L47.9151 31.9184H51.4804ZM52.2964 31.9286H56.4157C57.5299 31.9286 58.3888 32.0146 58.9858 32.1905C59.5863 32.3663 60.0373 32.6183 60.3358 32.9466C60.6377 33.2783 60.8434 33.6797 60.9494 34.1472C61.0556 34.6181 61.1085 35.3446 61.1085 36.3295V37.6993C61.1085 38.7042 61.0056 39.4373 60.8002 39.895C60.591 40.3559 60.2099 40.7077 59.656 40.9562C59.1018 41.2015 58.379 41.3243 57.487 41.3243H56.3888V47.6592H52.2964V31.9286ZM56.3888 34.6181V38.6214C56.505 38.6279 56.6045 38.6315 56.6874 38.6315C57.0657 38.6315 57.3243 38.5385 57.4701 38.356C57.6161 38.1704 57.6889 37.7856 57.6889 37.205V35.9116C57.6889 35.3743 57.6063 35.0227 57.4371 34.8637C57.268 34.701 56.9197 34.6181 56.3888 34.6181ZM71.6387 38.7872H67.5493V36.0478C67.5493 35.2517 67.5029 34.7543 67.4167 34.5553C67.3304 34.3595 67.138 34.2599 66.8394 34.2599C66.5011 34.2599 66.2889 34.3793 66.1962 34.6181C66.1067 34.8605 66.0601 35.3775 66.0601 36.1737V43.4801C66.0601 44.2463 66.1067 44.7438 66.1962 44.976C66.2889 45.2114 66.4913 45.3274 66.8097 45.3274C67.1148 45.3274 67.3138 45.2114 67.4068 44.976C67.4997 44.7438 67.5493 44.1966 67.5493 43.3344V41.3643H71.6387V41.9743C71.6387 43.5996 71.5228 44.7538 71.2938 45.4337C71.065 46.1137 70.5542 46.7106 69.7681 47.2214C68.982 47.7322 68.0102 47.9909 66.8595 47.9909C65.6589 47.9909 64.6704 47.772 63.8943 47.3375C63.1183 46.903 62.6008 46.3026 62.3489 45.5366C62.0968 44.7671 61.9706 43.613 61.9706 42.0707V37.4773C61.9706 36.3429 62.0106 35.4939 62.087 34.9265C62.1663 34.3595 62.3951 33.8123 62.7833 33.2881C63.1682 32.7642 63.7019 32.3496 64.3853 32.0478C65.0684 31.7494 65.8544 31.5967 66.7402 31.5967C67.9474 31.5967 68.9423 31.8324 69.7249 32.2966C70.5076 32.7642 71.0218 33.3447 71.2703 34.041C71.516 34.7377 71.6387 35.8223 71.6387 37.2914V38.7872ZM81.1442 31.9286V35.076H78.7164V47.6592H74.6269V35.076H72.2058V31.9286H81.1442ZM82.2786 31.9286H86.3978C87.5123 31.9286 88.3712 32.0146 88.9682 32.1905C89.5686 32.3663 90.0196 32.6183 90.3182 32.9466C90.6201 33.2783 90.8256 33.6797 90.9318 34.1472C91.038 34.6181 91.0909 35.3446 91.0909 36.3295V37.6993C91.0909 38.7042 90.988 39.4373 90.7823 39.895C90.5734 40.3559 90.1921 40.7077 89.6382 40.9562C89.0841 41.2015 88.3614 41.3243 87.4692 41.3243H86.3712V47.6592H82.2786V31.9286ZM86.3712 34.6181V38.6214C86.4872 38.6279 86.5867 38.6315 86.6698 38.6315C87.0479 38.6315 87.3066 38.5385 87.4525 38.356C87.5985 38.1704 87.6713 37.7856 87.6713 37.205V35.9116C87.6713 35.3743 87.5887 35.0227 87.4194 34.8637C87.2504 34.701 86.9018 34.6181 86.3712 34.6181ZM101.216 41.1387C101.216 42.7207 101.18 43.8385 101.107 44.4952C101.03 45.1552 100.798 45.7554 100.407 46.2993C100.016 46.8432 99.485 47.2612 98.8185 47.553C98.1518 47.845 97.3722 47.9909 96.4867 47.9909C95.6444 47.9909 94.888 47.8516 94.2182 47.5763C93.545 47.301 93.0078 46.8898 92.5996 46.3392C92.1919 45.7887 91.9495 45.1882 91.8702 44.5416C91.7939 43.8915 91.7539 42.7573 91.7539 41.1387V38.4489C91.7539 36.8668 91.7905 35.7492 91.8669 35.0892C91.9397 34.4326 92.1718 33.8321 92.5666 33.2881C92.9581 32.7444 93.4851 32.3263 94.1553 32.0347C94.8219 31.7427 95.598 31.5967 96.4867 31.5967C97.3292 31.5967 98.0855 31.7361 98.7554 32.0113C99.4252 32.2867 99.9658 32.6979 100.374 33.2485C100.782 33.799 101.024 34.3991 101.1 35.046C101.18 35.696 101.216 36.8271 101.216 38.4489V41.1387ZM97.1269 35.9714C97.1269 35.2384 97.0872 34.7709 97.0043 34.5652C96.9244 34.3627 96.759 34.2599 96.5066 34.2599C96.291 34.2599 96.1287 34.3429 96.0159 34.5086C95.8998 34.6713 95.8433 35.1587 95.8433 35.9714V43.3144C95.8433 44.2297 95.8833 44.7938 95.9561 45.0057C96.0291 45.2214 96.205 45.3274 96.4769 45.3274C96.7555 45.3274 96.9312 45.2048 97.0109 44.9595C97.0871 44.7109 97.1269 44.1269 97.1269 43.1984V35.9714ZM111.279 47.6592H107.859V40.4986L105.73 47.6592H102.145V31.9184H105.564V39.0194L107.859 31.9184H111.279V47.6592ZM121.73 47.6592H117.631V35.0662H116.413V47.6592H112.314V31.9184H121.73V47.6592ZM122.765 31.9286H126.884C127.998 31.9286 128.857 32.0146 129.454 32.1905C130.055 32.3663 130.506 32.6183 130.804 32.9466C131.106 33.2783 131.312 33.6797 131.418 34.1472C131.524 34.6181 131.577 35.3446 131.577 36.3295V37.6993C131.577 38.7042 131.474 39.4373 131.268 39.895C131.059 40.3559 130.678 40.7077 130.124 40.9562C129.57 41.2015 128.847 41.3243 127.955 41.3243H126.857V47.6592H122.765V31.9286ZM126.857 34.6181V38.6214C126.973 38.6279 127.073 38.6315 127.156 38.6315C127.534 38.6315 127.793 38.5385 127.938 38.356C128.084 38.1704 128.157 37.7856 128.157 37.205V35.9116C128.157 35.3743 128.074 35.0227 127.905 34.8637C127.736 34.701 127.388 34.6181 126.857 34.6181ZM146.916 31.9286H153.738V35.076H151.008V38.0576H153.562V41.0524H151.008V44.5118H154.01V47.6592H146.916V31.9286ZM154.985 31.9184H159.084L159.104 38.5649C159.877 38.5451 160.275 38.1174 160.302 37.2814L160.378 34.2103C160.404 33.0792 160.623 32.3132 161.038 31.9184H164.818C164.45 32.2999 164.268 33.0892 164.275 34.2898L164.295 36.9895C164.308 38.6214 163.386 39.5533 161.535 39.7788C163.386 40.0043 164.308 40.9496 164.295 42.6079L164.275 45.1118C164.268 46.3058 164.45 47.1549 164.818 47.6592H161.038C160.596 47.2644 160.378 46.4984 160.378 45.3674V42.2962C160.378 41.9082 160.258 41.5931 160.023 41.3578C159.787 41.1223 159.482 40.9993 159.104 40.9926L159.084 47.6592H154.985V31.9184ZM173.893 31.9286V35.076H171.465V47.6592H167.376V35.076H164.955V31.9286H173.893Z" fill="#005B9A"/>
<path fill-rule="evenodd" clip-rule="evenodd" d="M38.9761 26.4688C38.9761 27.4508 38.6784 28.2221 38.0829 28.783C37.4871 29.3433 36.6521 29.6238 35.5772 29.6238C34.5023 29.6238 33.6671 29.3433 33.0716 28.783C32.4758 28.2221 32.178 27.4508 32.178 26.4688C32.178 25.4869 32.4758 24.7154 33.0716 24.1548C33.6671 23.5942 34.5023 23.3139 35.5772 23.3139C36.6521 23.3139 37.4871 23.5942 38.0829 24.1548C38.6784 24.7154 38.9761 25.4869 38.9761 26.4688ZM36.5184 26.4688C36.5184 26.0039 36.4717 25.6436 36.379 25.3882C36.2278 24.9815 35.9608 24.7779 35.5772 24.7779C35.188 24.7779 34.9205 24.9783 34.7752 25.3793C34.6824 25.6351 34.6358 25.9982 34.6358 26.4688C34.6358 26.9336 34.6824 27.2938 34.7752 27.5495C34.9263 27.9563 35.1938 28.1595 35.5772 28.1595C35.9665 28.1595 36.2336 27.9591 36.379 27.5583C36.4717 27.3027 36.5184 26.9394 36.5184 26.4688ZM46.2447 29.5193H43.4556L41.9567 26.9307H41.9218V29.5193H39.5862V23.4184H41.9218V25.8151H41.9567L43.3947 23.4184H46.0529L43.9959 26.2773L46.2447 29.5193ZM52.8508 27.6543C52.8508 28.171 52.6882 28.5866 52.3629 28.9004C51.9386 29.313 51.2618 29.5193 50.3322 29.5193H46.785V23.4184H52.2146V24.9436H49.1205V25.7889H50.5412C51.3258 25.7889 51.9212 25.9837 52.3279 26.373C52.6767 26.7099 52.8508 27.137 52.8508 27.6543ZM50.463 27.6367C50.463 27.4623 50.4019 27.3171 50.2797 27.2009C50.1346 27.0615 49.9399 26.9918 49.696 26.9918H49.0596V28.2816H49.7396C49.9604 28.2816 50.1359 28.2221 50.2666 28.103C50.3975 27.984 50.463 27.8284 50.463 27.6367Z" fill="#3B4B73"/>
<path d="M174 49.6044H146.96V51.2953H174V49.6044Z" fill="#3B4B73"/>
<path fill-rule="evenodd" clip-rule="evenodd" d="M138.373 39.4495H139.925C140.305 39.4495 140.615 39.139 140.615 38.7597C140.615 38.3802 140.305 38.0698 139.925 38.0698H138.373C137.994 38.0698 137.683 38.3802 137.683 38.7597C137.683 39.139 137.994 39.4495 138.373 39.4495Z" fill="#3B4B73"/>
<path d="M140.05 46.6203C141.051 46.4937 141.951 46.0303 142.633 45.3483C143.401 44.5808 143.891 43.5367 143.936 42.384H140.05V46.6203ZM138.249 42.384H134.362C134.407 43.5367 134.898 44.5808 135.665 45.3483C136.347 46.0303 137.248 46.4937 138.249 46.6203V42.384ZM143.94 40.5828V37.7249C143.94 36.5031 143.44 35.3916 142.633 34.5855C141.827 33.7795 140.716 33.2789 139.494 33.2789H138.804C137.582 33.2789 136.471 33.7795 135.665 34.5855C134.859 35.3916 134.358 36.5031 134.358 37.7249V40.5828H143.94ZM139.494 48.4561H138.804C137.086 48.4561 135.523 47.7534 134.391 46.6218C133.26 45.49 132.557 43.9277 132.557 42.2089V37.7249C132.557 36.0062 133.26 34.4438 134.391 33.3121C135.523 32.1804 137.086 31.4777 138.804 31.4777H139.494C141.213 31.4777 142.775 32.1804 143.907 33.3121C145.039 34.4438 145.741 36.0062 145.741 37.7249V42.2089C145.741 43.9277 145.039 45.49 143.907 46.6218C142.775 47.7534 141.213 48.4561 139.494 48.4561Z" fill="#3B4B73"/>
<path d="M19.8679 16.3423L25.6056 48.1132L23.8397 48.4299L18.0447 16.3423H9.61856L3.82865 48.4019L2.06274 48.0852L7.79538 16.3423H6.75164H5.57678L5.88274 15.2096L6.85179 11.6241L7.03251 10.9556H7.72069H9.69469L11.1945 0.955597L11.3379 0L12.278 0.2099L15.5242 0.935064L16.128 1.06991L16.2208 1.67728L17.6382 10.9556H19.5431H20.195L20.3979 11.582L21.5608 15.1675L21.9419 16.3423H20.7059H19.8679ZM11.5137 10.9556H15.8175L14.5336 2.55195L12.8311 2.17177L11.5137 10.9556ZM18.8914 12.7569H8.40899L7.92675 14.5411H19.47L18.8914 12.7569Z" fill="#005B9A"/>
<path d="M18.7104 32.7349L3.39776 36.8575C3.55255 37.4367 3.78718 38.016 3.86211 38.5953C4.60349 38.2964 5.39278 38.2211 5.31953 38.8964C9.69658 38.9424 14.5204 39.2444 18.5793 39.8136C22.0031 40.294 24.8648 40.9562 26.4067 41.802C27.6074 42.4603 17.4132 41.7081 10.8968 42.1803C5.11275 42.5992 0.0978343 42.9631 0.0038114 44.0197C-0.0551481 44.683 0.567588 45.1041 2.03557 45.2348C4.65416 45.4678 6.79796 45.7122 8.53792 46.1386C10.2311 46.5534 11.5972 47.1462 12.7409 48.0829C13.0115 48.3047 12.3806 47.9904 12.2856 48.1282C11.9625 48.5972 11.6239 49.0886 11.6066 49.6942C11.5751 50.8192 12.5583 51.7357 16.4996 51.8727V51.881H131.945H131.946C132.832 51.8596 133.532 51.5175 134.159 51.2266C134.659 50.9948 135.062 50.8077 135.31 51.1795C135.591 51.5995 135.966 51.8527 136.388 51.9689C136.864 52.0999 137.38 52.0404 137.865 51.8452C138.292 51.673 138.705 51.3884 139.04 51.0386C139.525 50.5304 139.863 49.8654 139.881 49.1675L138.08 49.1254C138.074 49.3485 137.937 49.5922 137.738 49.8001C137.578 49.9672 137.388 50.1007 137.196 50.1776C137.063 50.2313 136.943 50.2538 136.86 50.2311C136.842 50.226 136.822 50.2098 136.802 50.1805C135.701 48.5296 134.676 49.0052 133.406 49.5944C132.956 49.8031 132.454 50.0368 131.945 50.0625V50.0616H16.4996V50.0704C14.036 49.9947 13.4044 49.8733 13.4078 49.7435C13.4102 49.6615 13.591 49.3988 13.7633 49.1484C14.3447 48.3048 14.888 47.5151 13.8807 46.6899C12.5169 45.5728 10.92 44.8738 8.96013 44.3936C8.51031 44.2834 8.04487 44.1855 7.56107 44.0964C8.63699 44.0976 9.80777 44.0695 11.0236 43.9815C20.3142 43.3082 31.4237 42.5027 27.272 40.226C25.5273 39.2689 22.4509 38.5423 18.8257 38.0337C15.8116 37.611 12.4045 37.332 9.07036 37.1931L22.231 33.6499C23.0344 33.4337 23.0525 32.1578 22.2557 31.9192L9.4605 28.0873L19.8625 25.0423C20.6558 24.81 20.6612 23.5578 19.8729 23.3185L11.1209 20.6597L14.3069 19.6509C14.6163 19.5529 14.9442 19.0955 14.9366 18.7713L14.8692 16.3419L13.1049 16.342L13.1195 18.1384L8.0008 19.8193C7.39584 20.0377 7.27192 21.0453 7.84338 21.218L16.4677 24.1659L6.65146 27.6022C5.80441 27.9517 5.8665 28.8502 6.35486 29.0498L18.7104 32.7349Z" fill="#3B4B73"/>
</svg>
